<svg xmlns="http://www.w3.org/2000/svg" viewBox="0 0 661.385 661.386">
  <defs>
    <style>
      .cls-1 {
        opacity: 0.2;
      }

      .cls-2 {
        fill: #fff;
      }
    </style>
  </defs>
  <g id="グループ化_7" data-name="グループ化 7" class="cls-1">
    <g id="グループ化_1" data-name="グループ化 1">
      <path id="パス_7" data-name="パス 7" class="cls-2" d="M185.565,497.357a42.01,42.01,0,0,0,7.363-48.781c-50.622-93.881-36.816-213.534,43.259-292.689s198.807-93.881,292.689-43.259a42.01,42.01,0,0,0,48.781-7.363h0c19.328-19.328,14.727-52.463-9.2-65.349C443.278-28.194,283.128-8.865,177.281,96.981s-125.175,266-57.065,391.172c12.886,23.93,46.02,28.532,65.349,9.2Z" transform="translate(-80.371 -0.071)"/>
      <path id="パス_8" data-name="パス 8" class="cls-2" d="M501.016,29.224a42.01,42.01,0,0,0-7.363,48.781c50.622,93.881,36.816,213.534-42.339,293.609S251.586,465.5,157.705,413.953a42.01,42.01,0,0,0-48.782,7.363h0c-19.328,19.328-14.726,52.463,9.2,65.349C243.3,554.775,403.453,535.447,509.3,429.6s125.175-266,57.065-391.172a40.408,40.408,0,0,0-65.349-9.2Z" transform="translate(55.176 134.875)"/>
    </g>
    <g id="グループ化_4" data-name="グループ化 4" transform="translate(211.961 290.195)">
      <g id="グループ化_2" data-name="グループ化 2">
        <circle id="楕円形_1" data-name="楕円形 1" class="cls-2" cx="35.896" cy="35.896" r="35.896"/>
      </g>
      <g id="グループ化_3" data-name="グループ化 3" transform="translate(165.673)">
        <circle id="楕円形_2" data-name="楕円形 2" class="cls-2" cx="35.896" cy="35.896" r="35.896"/>
      </g>
    </g>
  </g>
</svg>
