<svg id="グループ化_21" data-name="グループ化 21" xmlns="http://www.w3.org/2000/svg" viewBox="0 0 17.563 17.563">
  <defs>
    <style>
      .cls-1 {
        fill: #75dbd7;
      }
    </style>
  </defs>
  <g id="グループ化_1" data-name="グループ化 1">
    <path id="パス_7" data-name="パス 7" class="cls-1" d="M83.164,13.277a1.116,1.116,0,0,0,.2-1.3A6.59,6.59,0,0,1,92.281,3.06a1.116,1.116,0,0,0,1.3-.2h0a1.1,1.1,0,0,0-.244-1.735,8.783,8.783,0,0,0-11.9,11.9,1.1,1.1,0,0,0,1.735.244Z" transform="translate(-80.371 -0.071)"/>
    <path id="パス_8" data-name="パス 8" class="cls-1" d="M107.625,16.857a1.116,1.116,0,0,0-.2,1.3,6.621,6.621,0,0,1-1.124,7.8,6.543,6.543,0,0,1-7.8,1.124,1.116,1.116,0,0,0-1.3.2h0A1.1,1.1,0,0,0,97.457,29a8.783,8.783,0,0,0,11.9-11.9,1.073,1.073,0,0,0-1.735-.244Z" transform="translate(-92.855 -12.499)"/>
  </g>
  <g id="グループ化_4" data-name="グループ化 4" transform="translate(5.629 7.706)">
    <g id="グループ化_2" data-name="グループ化 2">
      <ellipse id="楕円形_1" data-name="楕円形 1" class="cls-1" cx="0.953" cy="0.953" rx="0.953" ry="0.953"/>
    </g>
    <g id="グループ化_3" data-name="グループ化 3" transform="translate(4.4)">
      <ellipse id="楕円形_2" data-name="楕円形 2" class="cls-1" cx="0.953" cy="0.953" rx="0.953" ry="0.953"/>
    </g>
  </g>
</svg>
