<svg xmlns="http://www.w3.org/2000/svg" viewBox="0 0 220 48.058">
  <defs>
    <style>
      .cls-1 {
        fill: #75dbd7;
      }
    </style>
  </defs>
  <g id="グループ化_33" data-name="グループ化 33" transform="translate(-347 -241)">
    <path id="パス_4" data-name="パス 4" class="cls-1" d="M163.9,47.891h0a2.991,2.991,0,0,1-3-3V3.5a2.991,2.991,0,0,1,3-3h0a2.991,2.991,0,0,1,3,3V44.887A3.034,3.034,0,0,1,163.9,47.891Z" transform="translate(293.497 240.834)"/>
    <g id="グループ化_16" data-name="グループ化 16" transform="translate(347 241)">
      <path id="パス_3" data-name="パス 3" class="cls-1" d="M44.12,27.033h0a2.944,2.944,0,0,0-2.87,2.136A18.022,18.022,0,0,1,24.029,42.051a16.978,16.978,0,0,1-5.206-.8,7.117,7.117,0,0,1-1.268-.467h0a17.946,17.946,0,0,1-.067-33.507h0c.4-.133.868-.334,1.268-.467a19.274,19.274,0,0,1,5.206-.8A17.962,17.962,0,0,1,41.183,18.823a3,3,0,0,0,2.87,2.136h0a3,3,0,0,0,2.87-3.871A23.931,23.931,0,0,0,7.342,6.742l-.334.334-.334.334A24.031,24.031,0,0,0,23.962,48.058,24.05,24.05,0,0,0,46.99,30.9,2.973,2.973,0,0,0,44.12,27.033Z" transform="translate(0 0)"/>
      <path id="パス_5" data-name="パス 5" class="cls-1" d="M302.987.5H261.6a2.991,2.991,0,0,0-3,3h0a2.991,2.991,0,0,0,3,3h17.688v38.38a3,3,0,0,0,6.007,0V6.507h17.688a2.991,2.991,0,0,0,3-3h0A2.991,2.991,0,0,0,302.987.5Z" transform="translate(-85.991 -0.166)"/>
      <path id="パス_6" data-name="パス 6" class="cls-1" d="M223.254.5a2.991,2.991,0,0,0-3,3V37.612L184.006,1.368a2.9,2.9,0,0,0-.467-.4c-.067-.067-.133-.067-.267-.133A.506.506,0,0,0,183.005.7a.6.6,0,0,0-.334-.067c-.067,0-.133-.067-.267-.067a3.63,3.63,0,0,0-1.2,0c-.067,0-.2.067-.267.067-.133,0-.2.067-.334.067-.067.067-.2.067-.267.133s-.133.067-.267.133a3.044,3.044,0,0,0-.8.8c-.067.067-.067.133-.134.267A.506.506,0,0,0,179,2.3a.5.5,0,0,0-.067.334c0,.067-.067.2-.067.267a1.848,1.848,0,0,0-.067.6h0V44.887a3,3,0,0,0,6.007,0V10.712l36.244,36.244h0a3.021,3.021,0,0,0,5.14-2.136V3.5A2.9,2.9,0,0,0,223.254.5Z" transform="translate(-59.455 -0.166)"/>
      <g id="グループ化_5" data-name="グループ化 5" transform="translate(53.646 0.047)">
        <g id="グループ化_1" data-name="グループ化 1">
          <path id="パス_7" data-name="パス 7" class="cls-1" d="M88,36.134a3.047,3.047,0,0,0,.534-3.538A18,18,0,0,1,112.9,8.234a3.047,3.047,0,0,0,3.538-.534h0a3,3,0,0,0-.667-4.739A23.985,23.985,0,0,0,83.26,35.467,3,3,0,0,0,88,36.134Z" transform="translate(-80.371 -0.071)"/>
          <path id="パス_8" data-name="パス 8" class="cls-1" d="M126.2,17.441a3.047,3.047,0,0,0-.534,3.538,18.082,18.082,0,0,1-3.07,21.292,17.868,17.868,0,0,1-21.292,3.07,3.047,3.047,0,0,0-3.538.534h0a3,3,0,0,0,.667,4.739,23.985,23.985,0,0,0,32.506-32.506,2.93,2.93,0,0,0-4.739-.667Z" transform="translate(-85.865 -5.541)"/>
        </g>
        <g id="グループ化_4" data-name="グループ化 4" transform="translate(15.371 21.045)">
          <g id="グループ化_2" data-name="グループ化 2">
            <circle id="楕円形_1" data-name="楕円形 1" class="cls-1" cx="2.603" cy="2.603" r="2.603"/>
          </g>
          <g id="グループ化_3" data-name="グループ化 3" transform="translate(12.015)">
            <circle id="楕円形_2" data-name="楕円形 2" class="cls-1" cx="2.603" cy="2.603" r="2.603"/>
          </g>
        </g>
      </g>
    </g>
  </g>
</svg>
