<?xml version="1.0" encoding="utf-8"?>
<!-- Generator: Adobe Illustrator 22.1.0, SVG Export Plug-In . SVG Version: 6.00 Build 0)  -->
<svg version="1.1" id="レイヤー_1" xmlns="http://www.w3.org/2000/svg" xmlns:xlink="http://www.w3.org/1999/xlink" x="0px"
	 y="0px" viewBox="0 0 671.6 146.7" style="enable-background:new 0 0 671.6 146.7;" xml:space="preserve">
<style type="text/css">
	.st0{fill:#FFFFFF;}
</style>
<g>
	<path id="パス_4" class="st0" d="M337,145.7L337,145.7c-5,0-9.1-4-9.2-9.1c0,0,0-0.1,0-0.1V10.2c0-5,4-9.1,9.1-9.2
		c0,0,0.1,0,0.1,0l0,0c5,0,9.1,4,9.2,9.1c0,0,0,0.1,0,0.1v126.3C346.1,141.6,342.1,145.6,337,145.7z"/>
	<path id="パス_3" class="st0" d="M134.7,82.5L134.7,82.5c-4.1-0.1-7.6,2.6-8.8,6.5c-6.9,23.3-28.3,39.3-52.6,39.3
		c-5.4,0-10.8-0.8-15.9-2.4c-1.3-0.4-2.6-0.8-3.9-1.4l0,0C25.3,113.7,11.2,82,21.9,53.8c5.5-14.5,17-26,31.4-31.6l0,0
		c1.2-0.4,2.6-1,3.9-1.4c5.2-1.5,10.5-2.4,15.9-2.4c24.2,0,45.6,15.9,52.6,39.1c1.2,3.9,4.7,6.5,8.8,6.5l0,0c5,0,9.2-4.1,9.2-9.1
		c0-0.9-0.1-1.8-0.4-2.7C131.7,13.5,91-8.5,52.3,3.1c-11.2,3.4-21.5,9.4-29.9,17.5l-1,1l-1,1c-28,29.3-27,75.7,2.3,103.7
		c13.6,13,31.7,20.3,50.5,20.4c32.4,0,61-21.3,70.3-52.4c1.5-4.8-1.1-9.9-5.9-11.4C136.6,82.7,135.7,82.5,134.7,82.5z"/>
	<path id="パス_5" class="st0" d="M662.4,1H536.1c-5,0-9.1,4-9.2,9.1c0,0,0,0.1,0,0.1l0,0c0,5,4,9.1,9.1,9.2c0,0,0.1,0,0.1,0h54
		v117.2c0,5.1,4.1,9.2,9.2,9.2c5.1,0,9.2-4.1,9.2-9.2V19.4h54c5,0,9.1-4,9.2-9.1c0,0,0-0.1,0-0.1l0,0C671.6,5.1,667.6,1,662.4,1
		C662.5,1,662.5,1,662.4,1z"/>
	<path id="パス_6" class="st0" d="M500,1c-5,0-9.1,4-9.2,9.1c0,0,0,0.1,0,0.1v104.1L380.2,3.7c-0.4-0.5-0.9-0.9-1.4-1.2
		c-0.2-0.2-0.4-0.2-0.8-0.4c-0.2-0.2-0.5-0.4-0.8-0.4c-0.3-0.2-0.7-0.2-1-0.2c-0.2,0-0.4-0.2-0.8-0.2c-1.2-0.2-2.5-0.2-3.7,0
		c-0.2,0-0.6,0.2-0.8,0.2c-0.4,0-0.6,0.2-1,0.2c-0.2,0.2-0.6,0.2-0.8,0.4s-0.4,0.2-0.8,0.4c-1,0.7-1.8,1.5-2.4,2.4
		c-0.2,0.2-0.2,0.4-0.4,0.8c-0.2,0.2-0.4,0.5-0.4,0.8c-0.2,0.3-0.3,0.7-0.2,1c0,0.2-0.2,0.6-0.2,0.8c-0.2,0.6-0.2,1.2-0.2,1.8l0,0
		v126.3c0,5.1,4.1,9.2,9.2,9.2c5.1,0,9.2-4.1,9.2-9.2c0,0,0,0,0,0V32.2l110.6,110.6l0,0c3.6,3.6,9.5,3.5,13-0.1
		c1.7-1.7,2.6-4,2.6-6.4V10.2c0.2-4.9-3.6-9-8.5-9.2C500.3,1,500.2,1,500,1z"/>
</g>
</svg>
