<svg xmlns="http://www.w3.org/2000/svg" viewBox="0 0 146.4 146.43"><defs><style>.cls-1{fill:#fff;}</style></defs><title>グループ化 5</title><g id="レイヤー_2" data-name="レイヤー 2"><g id="レイヤー_1-2" data-name="レイヤー 1"><g id="グループ化_5" data-name="グループ化 5"><g id="グループ化_1" data-name="グループ化 1"><path id="パス_7" data-name="パス 7" class="cls-1" d="M23.28,110.1a9.31,9.31,0,0,0,1.63-10.8A54.94,54.94,0,0,1,99.28,24.92a9.29,9.29,0,0,0,10.8-1.63h0a9.17,9.17,0,0,0,0-13,8.93,8.93,0,0,0-2-1.5A73.22,73.22,0,0,0,8.81,108.06a9.18,9.18,0,0,0,14.47,2Z"/><path id="パス_8" data-name="パス 8" class="cls-1" d="M123.12,36.33a9.31,9.31,0,0,0-1.63,10.8,55.2,55.2,0,0,1-9.37,65,54.55,54.55,0,0,1-65,9.38,9.29,9.29,0,0,0-10.8,1.63h0a9.17,9.17,0,0,0,0,13,8.93,8.93,0,0,0,2,1.5,73.22,73.22,0,0,0,99.23-99.23,9,9,0,0,0-12-3.86A9.16,9.16,0,0,0,123.12,36.33Z"/></g><g id="グループ化_4" data-name="グループ化 4"><g id="グループ化_2" data-name="グループ化 2"><circle id="楕円形_1" data-name="楕円形 1" class="cls-1" cx="54.86" cy="72.2" r="7.95"/></g><g id="グループ化_3" data-name="グループ化 3"><circle id="楕円形_2" data-name="楕円形 2" class="cls-1" cx="91.54" cy="72.2" r="7.95"/></g></g></g></g></g></svg>