<svg xmlns="http://www.w3.org/2000/svg" viewBox="0 0 90.01 89.9"><defs><style>.cls-1{fill:#75dbd7;}.cls-2{isolation:isolate;}</style></defs><title>グループ化 40</title><g id="レイヤー_2" data-name="レイヤー 2"><g id="レイヤー_1-2" data-name="レイヤー 1"><g id="グループ化_40" data-name="グループ化 40"><path id="パス_9" data-name="パス 9" class="cls-1" d="M84.26,50.7h0a5.7,5.7,0,0,0-5.5,4,34.23,34.23,0,0,1-32.9,24.1A33,33,0,0,1,36,77.3a11.72,11.72,0,0,1-2.4-.9h0A34,34,0,0,1,11.46,45a33.76,33.76,0,0,1,21.9-31.4h0a17,17,0,0,0,2.4-.9,41.62,41.62,0,0,1,9.9-1.5,34.24,34.24,0,0,1,32.9,24,5.79,5.79,0,0,0,5.5,4h0a5.59,5.59,0,0,0,5.7-5.5,8.81,8.81,0,0,0-.2-1.7c-5.5-18.5-23.1-32-43.7-32A46,46,0,0,0,14,12.6l-.6.6-.6.6a44.39,44.39,0,0,0,.5,62.8c.3.2.5.5.8.7a46.2,46.2,0,0,0,75.7-19.5,5.59,5.59,0,0,0-3.7-7C85.46,50.8,84.86,50.7,84.26,50.7Z"/><g class="cls-2"><path class="cls-1" d="M35.16,58.8V57.5h4.6a5,5,0,0,0,.8,1.2c.4-.5.7-.9,1-1.3l1.2.7c-.4.6-.8,1.1-1.2,1.6a4.35,4.35,0,0,0,.7.6l1.2-1.5,1.2.7a7.89,7.89,0,0,1-1.2,1.5,11.47,11.47,0,0,0,1.4.8l-.6,1.3a6.35,6.35,0,0,1-1.2-.7v3.1h-.9a4.07,4.07,0,0,1-.6,1.1h3v1.3H33.76V66.6h2.8c-.1-.2-.2-.6-.4-1.1h-.9V62.4c-.3.2-.7.4-1.2.7l-.6-1.3c.6-.3,1.2-.7,1.8-1-.4-.3-.8-.8-1.4-1.3l1-1c.6.5,1.1,1,1.6,1.4a6.71,6.71,0,0,0,1.2-1.2l-2.5.1Zm-.1,3.7h7.8a10.92,10.92,0,0,1-1.7-1.3v.7h-4.3v-.7A20.28,20.28,0,0,1,35.06,62.5Zm1.6,2.1h4.6v-.9h-4.6ZM39,58.9a8,8,0,0,1-1.5,1.7h3A8,8,0,0,1,39,58.9Zm.8,7.8c.2-.4.4-.7.6-1.1h-2.7c.2.5.3.8.4,1.1Z"/><path class="cls-1" d="M55.76,57.6v3.8h.8v1.3H54c.2.4.4.9.6,1.3a6.79,6.79,0,0,0,1.2-1.2l.9.9a18.48,18.48,0,0,1-1.4,1.4,8.69,8.69,0,0,0,1.6,1.7l-1,1.2a8.76,8.76,0,0,1-2-2.8v2a1.42,1.42,0,0,1-.2.6.55.55,0,0,1-.5.3h-.9a6.82,6.82,0,0,1-1.2-.1L51,67a14.63,14.63,0,0,1-1.3.9l-.6-.9-3.5.9-.2-1.3c.6-.1,1.2-.3,1.8-.4V63h-1.7V61.7h1.7v-1h-.9v-.4a5.55,5.55,0,0,1-.8.6l-.3-1.5a11.16,11.16,0,0,0,2.1-2.2h1.4a7.51,7.51,0,0,0,1.9,1.7l-.7,1.1v.7h-1.2v1H50v-.5h4.1v-.7h-3.6V59.3h3.6v-.6h-3.7V57.4h5.4v.2Zm-10.1,6.2,1-.2c.2.6.3,1.4.5,2.2l-1,.2A22.5,22.5,0,0,1,45.66,63.8Zm3.6-4.1-1.2-1.2a4,4,0,0,1-1,1.2Zm-.4,5.7a16.25,16.25,0,0,0,.4-1.9l.7.1,1-.8a7.89,7.89,0,0,1,1.2,1.5l.1-.1.1-.1V62.7h-2.3v.5h-1.4V66a6.4,6.4,0,0,0,1.5-.5v.4c.5-.4.8-.6.9-.7-.2-.3-.6-.8-1-1.3-.1.5-.2,1.1-.3,1.6Zm3.5.4a14.25,14.25,0,0,1-1.2,1.1H52c.2,0,.3,0,.3-.1a2,2,0,0,0,.1-.5v-.5Z"/></g><path id="パス_12" data-name="パス 12" class="cls-1" d="M52,34.3l4.5,1.7-3.8,10.2c-.4,1-2.3,4-3.6,4.6l-.3.9a.66.66,0,0,1-.5.4h-.2a.52.52,0,0,1-.3-.7l.3-.8c-.7-1.3-.2-5.1.1-5.9Zm6.5-10.8a2.71,2.71,0,0,0-3.1,1.6l-2.7,7.4,4.5,1.7,2.7-7.4A2.9,2.9,0,0,0,58.46,23.5Zm-8.2,10.4a1.11,1.11,0,0,0,1.4-.6h0l2.9-7.7a1.11,1.11,0,0,0-2.1-.7h0l-2.9,7.7a1.1,1.1,0,0,0,.7,1.3Zm-4.6,14.5a3.81,3.81,0,0,0-1.3-.9,2,2,0,0,0-1.3-.2H43a1.63,1.63,0,0,0-1.3-1.1,2.74,2.74,0,0,0-2.1.6,3.09,3.09,0,0,1,.2-.8,4.71,4.71,0,0,0,.2-2,1.09,1.09,0,0,0-1.1-.9,5.6,5.6,0,0,0-3.5,1.3c-1,.7-1.7,1.1-2.4.9s-.9-2.5-.5-4.4c.3-1.7,1-5,2.6-6.5.6-.5,1.4-1,2-.8.8.3,1.4,1.6,1.6,3.1a1.2,1.2,0,1,0,2.4-.2c-.2-2.5-1.4-4.4-3-5.1-1-.4-2.5-.5-4.4,1.2-2.1,1.8-2.8,5-3.4,7.8-.3,1.4-1,6,2,7.1,1.8.6,3.3-.3,4.5-1.1.2-.1.4-.3.6-.4a3.1,3.1,0,0,0,.2,2.5c.8,1.2,1.8,1.3,3.2.4.1,0,.1-.1.2-.1a2,2,0,0,0,.8.8,3.08,3.08,0,0,0,1.3.3h.4a2.65,2.65,0,0,1,.6.5l.6.6a1.13,1.13,0,0,0,1.6-.3,1.36,1.36,0,0,0-.2-1.6C46,48.7,45.76,48.6,45.66,48.4Z"/></g></g></g></svg>