<?xml version="1.0" encoding="utf-8"?>
<!-- Generator: Adobe Illustrator 22.1.0, SVG Export Plug-In . SVG Version: 6.00 Build 0)  -->
<svg version="1.1" id="レイヤー_1" xmlns="http://www.w3.org/2000/svg" xmlns:xlink="http://www.w3.org/1999/xlink" x="0px"
	 y="0px" viewBox="0 0 90 90" style="enable-background:new 0 0 90 90;" xml:space="preserve">
<style type="text/css">
	.st0{fill:#FFFFFF;}
	.st1{enable-background:new    ;}
</style>
<g id="グループ化_40" transform="translate(-1290.026 -339)">
	<path id="パス_9" class="st0" d="M1374.3,389.6L1374.3,389.6c-2.5,0-4.8,1.6-5.5,4c-4.5,14.4-17.8,24.2-32.9,24.1
		c-3.4,0-6.7-0.5-9.9-1.5c-0.8-0.2-1.6-0.5-2.4-0.9l0,0c-13.2-4.9-21.9-17.4-22.1-31.4c0.1-14,8.8-26.5,21.9-31.4l0,0
		c0.8-0.2,1.7-0.6,2.4-0.9c3.2-0.9,6.6-1.4,9.9-1.5c15-0.1,28.4,9.6,32.9,24c0.8,2.4,3,4,5.5,4l0,0c3.1,0,5.7-2.4,5.7-5.5
		c0-0.6-0.1-1.2-0.2-1.7c-5.5-18.5-23.1-32-43.7-32c-11.9-0.1-23.3,4.5-31.9,12.6l-0.6,0.6l-0.6,0.6c-17.2,17.5-17,45.6,0.5,62.8
		c0.3,0.2,0.5,0.5,0.8,0.7c8.6,8.1,19.9,12.6,31.7,12.6c20.1,0.1,38-12.9,44-32.1c0.9-2.9-0.7-6.1-3.7-7
		C1375.5,389.7,1374.9,389.6,1374.3,389.6z"/>
	<g class="st1">
		<path class="st0" d="M1325.2,397.7v-1.3h4.6c0.2,0.4,0.5,0.9,0.8,1.2c0.4-0.5,0.7-0.9,1-1.3l1.2,0.7c-0.4,0.6-0.8,1.1-1.2,1.6
			c0.2,0.2,0.4,0.4,0.7,0.6c0.4-0.5,0.8-1,1.2-1.5l1.2,0.7c-0.3,0.5-0.7,1-1.2,1.5c0.6,0.4,1,0.6,1.4,0.8l-0.6,1.3
			c-0.5-0.2-0.9-0.5-1.2-0.7v3.1h-0.9c-0.1,0.3-0.3,0.7-0.6,1.1h3v1.3h-10.8v-1.3h2.8c-0.1-0.2-0.2-0.6-0.4-1.1h-0.9v-3.1
			c-0.3,0.2-0.7,0.4-1.2,0.7l-0.6-1.3c0.6-0.3,1.2-0.7,1.8-1c-0.4-0.3-0.8-0.8-1.4-1.3l1-1c0.6,0.5,1.1,1,1.6,1.4
			c0.5-0.4,1-0.9,1.2-1.2H1325.2z M1325.1,401.4h7.8c-0.6-0.4-1.2-0.8-1.7-1.3v0.7h-4.3v-0.7C1326.3,400.6,1325.7,401,1325.1,401.4z
			 M1326.7,403.5h4.6v-0.9h-4.6V403.5z M1329,397.8c-0.4,0.6-0.9,1.2-1.5,1.7h3C1329.9,399,1329.4,398.4,1329,397.8z M1329.8,405.6
			c0.2-0.4,0.4-0.7,0.6-1.1h-2.7c0.2,0.5,0.3,0.8,0.4,1.1H1329.8z"/>
		<path class="st0" d="M1345.8,396.5v3.8h0.8v1.3h-2.6c0.2,0.4,0.4,0.9,0.6,1.3c0.4-0.3,0.8-0.7,1.2-1.2l0.9,0.9
			c-0.4,0.5-0.9,0.9-1.4,1.4c0.5,0.7,1,1.2,1.6,1.7l-1,1.2c-0.8-0.7-1.4-1.6-2-2.8v0.9c0,0.5,0,0.9,0,1.1c0,0.2-0.1,0.4-0.2,0.6
			s-0.3,0.3-0.5,0.3s-0.5,0-0.9,0c-0.2,0-0.6,0-1.2-0.1l-0.1-1c-0.4,0.3-0.8,0.6-1.3,0.9l-0.6-0.9c-1.2,0.3-2.3,0.6-3.5,0.9
			l-0.2-1.3c0.6-0.1,1.2-0.3,1.8-0.4v-3.2h-1.7v-1.3h1.7v-1h-0.9v-0.4c-0.2,0.2-0.5,0.4-0.8,0.6l-0.3-1.5c0.7-0.5,1.4-1.3,2.1-2.2
			h1.4c0.6,0.7,1.2,1.3,1.9,1.7l-0.7,1.1v0.7h-1.2v1h1.3v-0.5h4.1v-0.7h-3.6v-1.2h3.6v-0.6h-3.7v-1.3H1345.8z M1335.7,402.7l1-0.2
			c0.2,0.6,0.3,1.4,0.5,2.2l-1,0.2C1336,404.1,1335.8,403.4,1335.7,402.7z M1339.3,398.6c-0.4-0.4-0.8-0.8-1.2-1.2
			c-0.3,0.5-0.6,0.9-1,1.2H1339.3z M1338.9,404.3c0.2-0.7,0.3-1.3,0.4-1.9l0.7,0.1l1-0.8c0.5,0.5,0.9,1,1.2,1.5c0,0,0.1-0.1,0.1-0.1
			c0.1-0.1,0.1-0.1,0.1-0.1v-1.4h-2.3v0.5h-1.4v2.8c0.7-0.2,1.2-0.3,1.5-0.5l0,0.4c0.5-0.4,0.8-0.6,0.9-0.7c-0.2-0.3-0.6-0.8-1-1.3
			c-0.1,0.5-0.2,1.1-0.3,1.6L1338.9,404.3z M1342.4,404.7c-0.3,0.3-0.7,0.7-1.2,1.1c0.4,0,0.6,0,0.8,0c0.2,0,0.3,0,0.3-0.1
			s0.1-0.2,0.1-0.5V404.7z"/>
	</g>
	<path id="パス_12" class="st0" d="M1342,373.2l4.5,1.7l-3.8,10.2c-0.4,1-2.3,4-3.6,4.6l-0.3,0.9c-0.1,0.2-0.3,0.4-0.5,0.4
		c-0.1,0-0.1,0-0.2,0c-0.3-0.1-0.4-0.4-0.3-0.7l0.3-0.8c-0.7-1.3-0.2-5.1,0.1-5.9L1342,373.2z M1348.5,362.4
		c-1.3-0.3-2.6,0.4-3.1,1.6l-2.7,7.4l4.5,1.7l2.7-7.4C1350.2,364.4,1349.7,363,1348.5,362.4z M1340.3,372.8c0.6,0.2,1.2-0.1,1.4-0.6
		c0,0,0,0,0,0l2.9-7.7c0.2-0.6-0.1-1.2-0.7-1.4c-0.6-0.2-1.2,0.1-1.4,0.7l0,0l-2.9,7.7C1339.5,372,1339.7,372.6,1340.3,372.8
		C1340.3,372.8,1340.3,372.8,1340.3,372.8z M1335.7,387.3c-0.4-0.4-0.8-0.7-1.3-0.9c-0.4-0.2-0.9-0.3-1.3-0.2h-0.1
		c-0.2-0.6-0.7-1-1.3-1.1c-0.7-0.1-1.5,0.1-2.1,0.6c0-0.2,0.1-0.5,0.2-0.8c0.2-0.7,0.3-1.4,0.2-2c-0.1-0.5-0.5-0.9-1.1-0.9
		c-1.3,0-2.5,0.5-3.5,1.3c-1,0.7-1.7,1.1-2.4,0.9c-0.8-0.3-0.9-2.5-0.5-4.4c0.3-1.7,1-5,2.6-6.5c0.6-0.5,1.4-1,2-0.8
		c0.8,0.3,1.4,1.6,1.6,3.1c0.1,0.6,0.6,1.1,1.3,1.1c0.6-0.1,1.1-0.6,1.1-1.3c-0.2-2.5-1.4-4.4-3-5.1c-1-0.4-2.5-0.5-4.4,1.2
		c-2.1,1.8-2.8,5-3.4,7.8c-0.3,1.4-1,6,2,7.1c1.8,0.6,3.3-0.3,4.5-1.1c0.2-0.1,0.4-0.3,0.6-0.4c-0.3,0.8-0.2,1.8,0.2,2.5
		c0.8,1.2,1.8,1.3,3.2,0.4c0.1,0,0.1-0.1,0.2-0.1c0.2,0.3,0.4,0.6,0.8,0.8c0.4,0.2,0.9,0.3,1.3,0.3c0.1,0,0.3,0,0.4,0
		c0.2,0.1,0.4,0.3,0.6,0.5c0.2,0.2,0.4,0.4,0.6,0.6c0.5,0.4,1.3,0.2,1.6-0.3c0.3-0.5,0.2-1.2-0.2-1.6
		C1336,387.6,1335.8,387.5,1335.7,387.3z"/>
</g>
</svg>
